<?xml version="1.0" encoding="utf-8"?>
<!-- Generator: Adobe Illustrator 18.1.0, SVG Export Plug-In . SVG Version: 6.00 Build 0)  -->
<!DOCTYPE svg PUBLIC "-//W3C//DTD SVG 1.1//EN" "http://www.w3.org/Graphics/SVG/1.1/DTD/svg11.dtd">
<svg version="1.1" id="Layer_1" xmlns="http://www.w3.org/2000/svg" xmlns:xlink="http://www.w3.org/1999/xlink" x="0px" y="0px"
	 width="541.1px" height="281.5px" viewBox="171 -40.5 541.1 281.5" enable-background="new 171 -40.5 541.1 281.5"
	 xml:space="preserve">
<path fill="#808184" d="M171,96h4.9v32.7c2.2-5.3,8.6-10.2,17.2-10.2c10.3,0,17.3,5.6,17.3,19.4v29.9h-4.9v-30.2
	c0-10.3-4.8-14.9-13.5-14.9c-8.1,0-16.1,5.4-16.1,15.6v29.5H171V96z M220.5,154.7c0-11.3,10.8-14.7,22.8-14.7h10.1v-4.4
	c0-9.1-3.7-13-12.3-13c-7.3,0-12.6,3.2-13.7,10.3h-4.8c1.1-10.2,9.5-14.5,18.7-14.5c10.1,0,17,4.8,17,17.2v32.2h-4.9v-7.4
	c-3.1,4.7-8.3,8.2-16.5,8.2C227.4,168.6,220.5,163.9,220.5,154.7z M253.5,152.1v-8.3h-9.9c-10.1,0-18,2.1-18,10.9
	c0,6.2,3.9,9.9,11.9,9.9C246.3,164.6,253.5,159.4,253.5,152.1z M272.1,119.2h4.9v9.2c2.2-5.3,8-9.9,15.9-9.9
	c7.3,0,12.8,3.1,14.9,10.9c3.1-6.9,9.9-10.9,17.3-10.9c9.4,0,16.3,5.1,16.3,19v30.4h-4.9v-30.7c0-10.3-4.4-14.4-12.2-14.4
	c-7.4,0-15.1,5.3-15.1,15.4v29.7h-4.9v-30.7c0-10.3-4.4-14.4-12.2-14.4c-7.4,0-15.1,5.3-15.1,15.4v29.7h-4.9V119.2L272.1,119.2z
	 M355.1,119.2h4.9v9.2c2.2-5.3,8-9.9,15.9-9.9c7.3,0,12.8,3.1,14.9,10.9c3.1-6.9,9.9-10.9,17.3-10.9c9.4,0,16.3,5.1,16.3,19v30.4
	h-4.9v-30.7c0-10.3-4.4-14.4-12.2-14.4c-7.4,0-15.1,5.3-15.1,15.4v29.7h-4.9v-30.7c0-10.3-4.4-14.4-12.2-14.4
	c-7.4,0-15.1,5.3-15.1,15.4v29.7H355L355.1,119.2L355.1,119.2z M434.3,144v-0.7c0-14.7,9.3-24.8,22.3-24.8
	c11.7,0,21.3,7.6,21.3,23.7v1.8h-38.5c0.2,13,6.4,20.5,17.9,20.5c8.1,0,13.6-3.4,15.2-10.1h4.9c-2,9.3-9.8,14.3-20.2,14.3
	C443.4,168.6,434.3,158.6,434.3,144z M472.8,139.9c-0.5-11.8-6.7-17.3-16.2-17.3c-9.4,0-16.1,6.7-17,17.3H472.8z M488.3,119.2h4.9
	v10.2c2.7-5.9,7.5-10.6,16.5-10.9v4.6c-9.4,0.4-16.5,4.7-16.5,17.7v27h-4.9V119.2z M542.7,145.9h-18.1v-4.3h18.1v-19.4h4.5v19.4
	h18.1v4.3h-18.1v19.4h-4.5V145.9z M586.3,119.2h4.9v9.5c2.2-5.3,8.6-10.2,17.2-10.2c10.3,0,17.3,5.6,17.3,19.4v29.9h-4.9v-30.2
	c0-10.3-4.8-14.9-13.5-14.9c-8.1,0-16.1,5.4-16.1,15.6v29.5h-4.9V119.2z M635.9,154.7c0-11.3,10.8-14.7,22.8-14.7h10.1v-4.4
	c0-9.1-3.7-13-12.3-13c-7.3,0-12.6,3.2-13.7,10.3H638c1.1-10.2,9.5-14.5,18.7-14.5c10.1,0,17,4.8,17,17.2v32.2h-4.9v-7.4
	c-3.1,4.7-8.3,8.2-16.5,8.2C642.7,168.6,635.9,163.9,635.9,154.7z M668.8,152.1v-8.3h-9.9c-10.1,0-18,2.1-18,10.9
	c0,6.2,3.9,9.9,11.9,9.9C661.6,164.6,668.8,159.4,668.8,152.1z M686.5,105.2c0-1.9,1.6-3.4,3.5-3.4c2,0,3.4,1.6,3.4,3.4
	c0,2-1.5,3.5-3.4,3.5S686.5,107.2,686.5,105.2z M687.6,119.2h4.9v48.6h-4.9V119.2z M707.1,96h5v71.9h-5V96z M411.2,218.5h4.9l9.3,16
	v-16h3.8v22.2h-4.3l-10-17v17h-3.8L411.2,218.5L411.2,218.5z M440.6,231.1l-7.4-12.6h4.6l5,9.2l4.9-9.2h4l-6.9,12.6v9.6h-4.2
	L440.6,231.1L440.6,231.1z M453,229.7v-0.2c0-6.7,4.6-11.3,10.8-11.3c5.1,0,9,2.5,9.5,7.8h-4.2c-0.5-2.9-2.1-4.5-5.3-4.5
	c-3.9,0-6.5,3-6.5,8v0.2c0,5,2.4,7.9,6.5,7.9c3.1,0,5.2-1.6,5.7-4.7h4c-0.6,5.3-4.4,8-9.7,8C456.9,241,453,236.6,453,229.7z
	 M438,52.5c0,2.9,1.4,3.9,3.8,3.9h0.6c2.6,0,4-1,4-3.9V-3.7H438L438,52.5L438,52.5z M422.1-23.6c-2.4,0-3.8,1-3.8,3.9v16.9
	c0,2.9,1.4,3.9,3.8,3.9h1.6c0-6.9,0.9-8.7,7.2-8.7h16.3c11.2,0,22.3-2.1,22.3-3.8c0-1.6-11.1-4-22.3-4h-23.5v-8.2L422.1-23.6
	L422.1-23.6z M441.1-35.2c27.2,0,49.3,22.1,49.3,49.3s-22.1,49.3-49.3,49.3c-27.2,0-49.3-22.1-49.3-49.3S413.8-35.2,441.1-35.2
	 M441.1-40.5c-30.1,0-54.6,24.5-54.6,54.6c0,30.1,24.5,54.6,54.6,54.6c30.1,0,54.6-24.5,54.6-54.6C495.7-16,471.2-40.5,441.1-40.5
	L441.1-40.5z"/>
</svg>
